<svg width="80" height="80" viewBox="0 0 80 80" fill="none" xmlns="http://www.w3.org/2000/svg">
<path d="M40 0C32.0888 0 24.3552 2.34596 17.7772 6.74121C11.1992 11.1365 6.07234 17.3836 3.04484 24.6927C0.0173307 32.0017 -0.774802 40.0444 0.768607 47.8036C2.31202 55.5628 6.12164 62.6902 11.7157 68.2843C17.3098 73.8784 24.4372 77.688 32.1964 79.2314C39.9556 80.7748 47.9983 79.9827 55.3073 76.9552C62.6164 73.9277 68.8635 68.8008 73.2588 62.2228C77.654 55.6448 80 47.9112 80 40C79.9875 29.3952 75.7693 19.2282 68.2705 11.7295C60.7718 4.23073 50.6048 0.0124543 40 0ZM40 75.2941C33.0195 75.2941 26.1957 73.2241 20.3917 69.346C14.5876 65.4678 10.0638 59.9556 7.3925 53.5065C4.72118 47.0573 4.02223 39.9608 5.38407 33.1145C6.7459 26.2681 10.1073 19.9793 15.0433 15.0433C19.9793 10.1073 26.2681 6.74588 33.1145 5.38405C39.9609 4.02222 47.0573 4.72116 53.5065 7.39249C59.9556 10.0638 65.4678 14.5875 69.346 20.3916C73.2242 26.1957 75.2941 33.0195 75.2941 40C75.2837 49.3574 71.5619 58.3286 64.9453 64.9452C58.3286 71.5619 49.3574 75.2837 40 75.2941ZM37.6471 43.1372V21.1765C37.6471 20.5524 37.895 19.9539 38.3362 19.5127C38.7775 19.0714 39.376 18.8235 40 18.8235C40.624 18.8235 41.2225 19.0714 41.6638 19.5127C42.1051 19.9539 42.353 20.5524 42.353 21.1765V43.1372C42.353 43.7613 42.1051 44.3598 41.6638 44.801C41.2225 45.2423 40.624 45.4902 40 45.4902C39.376 45.4902 38.7775 45.2423 38.3362 44.801C37.895 44.3598 37.6471 43.7613 37.6471 43.1372ZM43.9216 57.2549C43.9216 58.0305 43.6916 58.7887 43.2607 59.4336C42.8298 60.0785 42.2173 60.5811 41.5007 60.8779C40.7842 61.1748 39.9957 61.2524 39.2349 61.1011C38.4742 60.9498 37.7755 60.5763 37.227 60.0279C36.6786 59.4794 36.3051 58.7807 36.1538 58.0199C36.0025 57.2592 36.0801 56.4707 36.377 55.7542C36.6738 55.0376 37.1764 54.4251 37.8213 53.9942C38.4662 53.5633 39.2244 53.3333 40 53.3333C41.0401 53.3333 42.0375 53.7465 42.773 54.4819C43.5084 55.2174 43.9216 56.2148 43.9216 57.2549Z" fill="#FACEA8"/>
</svg>
