<svg width="16" height="17" viewBox="0 0 16 17" fill="none" xmlns="http://www.w3.org/2000/svg">
<path d="M12.5995 16.4983C12.4872 16.4988 12.3777 16.4613 12.2865 16.3912L7.99917 13.0616L3.71186 16.3912C3.62027 16.4623 3.50992 16.5004 3.39677 16.5C3.28362 16.4996 3.17353 16.4606 3.08242 16.3887C2.99131 16.3168 2.9239 16.2158 2.88993 16.1002C2.85597 15.9845 2.85721 15.8603 2.89347 15.7455L4.56559 10.4402L0.231948 7.25673C0.138079 7.18785 0.0672314 7.08862 0.0297578 6.97354C-0.0077159 6.85846 -0.00985196 6.73356 0.0236618 6.61708C0.0571755 6.50061 0.124583 6.39866 0.216034 6.32615C0.307486 6.25363 0.418189 6.21434 0.53197 6.21402H5.87835L7.4918 0.895132C7.52656 0.780299 7.59438 0.68021 7.68553 0.609223C7.77668 0.538236 7.88647 0.5 7.99917 0.5C8.11186 0.5 8.22166 0.538236 8.31281 0.609223C8.40396 0.68021 8.47178 0.780299 8.50654 0.895132L10.12 6.21581H15.4664C15.5803 6.21575 15.6912 6.25476 15.783 6.32714C15.8747 6.39952 15.9424 6.50145 15.9761 6.61802C16.0098 6.73458 16.0078 6.85965 15.9704 6.97491C15.9329 7.09016 15.862 7.18955 15.7681 7.25852L11.4327 10.4402L13.1039 15.7441C13.1309 15.83 13.1386 15.9215 13.1261 16.0112C13.1136 16.1008 13.0814 16.186 13.0321 16.2597C12.9829 16.3334 12.9179 16.3934 12.8427 16.4349C12.7675 16.4764 12.6841 16.4981 12.5995 16.4983Z" fill="#79747E"/>
</svg>
