<svg width="41" height="41" viewBox="0 0 41 41" fill="none" xmlns="http://www.w3.org/2000/svg">
<path d="M39.5 20.75C39.5 10.3984 31.1016 2 20.75 2C10.3984 2 2 10.3984 2 20.75C2 31.1016 10.3984 39.5 20.75 39.5C31.1016 39.5 39.5 31.1016 39.5 20.75Z" stroke="white" stroke-width="3" stroke-miterlimit="10"/>
<path d="M19.9937 27.0664C19.9107 27.1494 19.7753 27.16 19.6792 27.0977L19.6411 27.0664L13.5708 20.9971C13.488 20.9143 13.4777 20.7786 13.5396 20.6826L13.5708 20.6436L19.6411 14.5742C19.6924 14.5229 19.7533 14.5 19.8179 14.5C19.8823 14.5001 19.9425 14.523 19.9937 14.5742C20.0764 14.657 20.0868 14.7917 20.0249 14.8877L19.9937 14.9268L14.1001 20.8203L19.9937 26.7139C20.0884 26.8086 20.0884 26.9717 19.9937 27.0664Z" fill="#4F4F4F" stroke="white"/>
<path d="M27.7031 21.0703H13.627C13.6251 21.0703 13.6207 21.0697 13.6123 21.0654C13.6024 21.0603 13.5861 21.0495 13.5684 21.0283C13.5319 20.9846 13.5 20.9114 13.5 20.8203C13.5 20.7292 13.5319 20.656 13.5684 20.6123C13.5861 20.5911 13.6024 20.5803 13.6123 20.5752C13.6207 20.5709 13.6251 20.5703 13.627 20.5703H27.7031C27.7049 20.5703 27.7093 20.5708 27.7178 20.5752C27.7277 20.5803 27.744 20.5911 27.7617 20.6123C27.7982 20.656 27.8301 20.7292 27.8301 20.8203C27.8301 20.9114 27.7982 20.9846 27.7617 21.0283C27.744 21.0495 27.7277 21.0603 27.7178 21.0654C27.7093 21.0698 27.7049 21.0703 27.7031 21.0703Z" fill="#4F4F4F" stroke="white"/>
</svg>
