<svg width="20" height="24" viewBox="0 0 20 24" fill="none" xmlns="http://www.w3.org/2000/svg">
<path d="M13.1255 18.25V19.0312C13.1255 19.8601 12.7963 20.6549 12.2103 21.241C11.6242 21.827 10.8293 22.1562 10.0005 22.1562C9.17174 22.1562 8.37689 21.827 7.79084 21.241C7.20479 20.6549 6.87555 19.8601 6.87555 19.0312V18.25M18.3834 16.6597C17.1295 15.125 16.2442 14.3438 16.2442 10.1128C16.2442 6.23828 14.2657 4.85791 12.6373 4.1875C12.421 4.09863 12.2173 3.89453 12.1514 3.67236C11.8658 2.7002 11.065 1.84375 10.0005 1.84375C8.93609 1.84375 8.13482 2.70068 7.85211 3.67334C7.78619 3.89795 7.58258 4.09863 7.36627 4.1875C5.7359 4.85889 3.75934 6.23438 3.75934 10.1128C3.75689 14.3438 2.87164 15.125 1.61773 16.6597C1.0982 17.2954 1.55328 18.25 2.46197 18.25H17.544C18.4478 18.25 18.9 17.2925 18.3834 16.6597Z" stroke="#49454F" stroke-width="2" stroke-linecap="round" stroke-linejoin="round"/>
</svg>
