<svg width="41" height="41" viewBox="0 0 41 41" fill="none" xmlns="http://www.w3.org/2000/svg">
<path d="M39.5 20.75C39.5 10.3984 31.1016 2 20.75 2C10.3984 2 2 10.3984 2 20.75C2 31.1016 10.3984 39.5 20.75 39.5C31.1016 39.5 39.5 31.1016 39.5 20.75Z" stroke="#4F4F4F" stroke-width="3" stroke-miterlimit="10"/>
<path d="M19.8174 14.0002C20.0074 14.0002 20.1974 14.0702 20.3474 14.2202C20.6374 14.5102 20.6374 14.9902 20.3474 15.2802L14.8074 20.8202L20.3474 26.3602C20.6374 26.6502 20.6374 27.1302 20.3474 27.4202C20.0574 27.7102 19.5774 27.7102 19.2874 27.4202L13.2174 21.3502C12.9274 21.0602 12.9274 20.5802 13.2174 20.2902L19.2874 14.2202C19.4374 14.0702 19.6274 14.0002 19.8174 14.0002Z" fill="#4F4F4F"/>
<path d="M13.6273 20.0703H27.7028C28.0457 20.0703 28.3301 20.4103 28.3301 20.8203C28.3301 21.2303 28.0457 21.5703 27.7028 21.5703H13.6273C13.2844 21.5703 13.0001 21.2303 13.0001 20.8203C13.0001 20.4103 13.2844 20.0703 13.6273 20.0703Z" fill="#4F4F4F"/>
</svg>
