<svg width="16" height="16" viewBox="0 0 16 16" fill="none" xmlns="http://www.w3.org/2000/svg">
<path fill-rule="evenodd" clip-rule="evenodd" d="M0.5 8.14844C0.5 4.00844 3.8525 0.648438 7.9925 0.648438C12.14 0.648438 15.5 4.00844 15.5 8.14844C15.5 12.2884 12.14 15.6484 7.9925 15.6484C3.8525 15.6484 0.5 12.2884 0.5 8.14844ZM10.9775 5.14844H13.19C12.47 3.91094 11.3225 2.95094 9.9425 2.47844C10.3925 3.31094 10.7375 4.21094 10.9775 5.14844ZM8 2.17844C8.6225 3.07844 9.11 4.07594 9.4325 5.14844H6.5675C6.89 4.07594 7.3775 3.07844 8 2.17844ZM2 8.14844C2 8.66594 2.075 9.16844 2.195 9.64844H4.73C4.67 9.15344 4.625 8.65844 4.625 8.14844C4.625 7.63844 4.67 7.14344 4.73 6.64844H2.195C2.075 7.12844 2 7.63094 2 8.14844ZM2.81 11.1484H5.0225C5.2625 12.0859 5.6075 12.9859 6.0575 13.8184C4.6775 13.3459 3.53 12.3934 2.81 11.1484ZM2.81 5.14844H5.0225C5.2625 4.21094 5.6075 3.31094 6.0575 2.47844C4.6775 2.95094 3.53 3.90344 2.81 5.14844ZM8 14.1184C7.3775 13.2184 6.89 12.2209 6.5675 11.1484H9.4325C9.11 12.2209 8.6225 13.2184 8 14.1184ZM6.125 8.14844C6.125 8.65844 6.1775 9.15344 6.245 9.64844H9.755C9.8225 9.15344 9.875 8.65844 9.875 8.14844C9.875 7.63844 9.8225 7.13594 9.755 6.64844H6.245C6.1775 7.13594 6.125 7.63844 6.125 8.14844ZM9.9425 13.8184C10.3925 12.9859 10.7375 12.0859 10.9775 11.1484H13.19C12.47 12.3859 11.3225 13.3459 9.9425 13.8184ZM11.375 8.14844C11.375 8.65844 11.33 9.15344 11.27 9.64844H13.805C13.925 9.16844 14 8.66594 14 8.14844C14 7.63094 13.925 7.12844 13.805 6.64844H11.27C11.33 7.14344 11.375 7.63844 11.375 8.14844Z" fill="#322F35"/>
</svg>
