<svg width="29" height="26" viewBox="0 0 29 26" fill="none" xmlns="http://www.w3.org/2000/svg">
<path d="M27.4252 11.3039L27.4158 11.2998L2.3916 0.92052C2.18112 0.832423 1.95209 0.797873 1.72498 0.819959C1.49788 0.842046 1.2798 0.92008 1.09023 1.04708C0.889958 1.17831 0.725449 1.35728 0.611509 1.56787C0.497569 1.77847 0.437773 2.01409 0.4375 2.25353V8.89161C0.437612 9.21895 0.55191 9.53599 0.760695 9.78809C0.969479 10.0402 1.25967 10.2116 1.58125 10.2727L15.2295 12.7963C15.2831 12.8065 15.3315 12.835 15.3663 12.8771C15.4012 12.9191 15.4202 12.972 15.4202 13.0266C15.4202 13.0812 15.4012 13.134 15.3663 13.1761C15.3315 13.2181 15.2831 13.2467 15.2295 13.2568L1.58184 15.7805C1.26035 15.8414 0.970172 16.0126 0.761294 16.2644C0.552415 16.5163 0.43791 16.8331 0.4375 17.1604V23.7996C0.437345 24.0283 0.493958 24.2534 0.602259 24.4547C0.71056 24.6561 0.867161 24.8274 1.05801 24.9533C1.28758 25.1059 1.557 25.1874 1.83262 25.1877C2.02423 25.1875 2.21388 25.1491 2.39043 25.0746L27.4141 14.7545L27.4252 14.7492C27.762 14.6045 28.049 14.3641 28.2507 14.058C28.4524 13.7518 28.5599 13.3932 28.5599 13.0266C28.5599 12.6599 28.4524 12.3014 28.2507 11.9952C28.049 11.689 27.762 11.4487 27.4252 11.3039Z" fill="#49454F"/>
</svg>
