<svg width="14" height="15" viewBox="0 0 14 15" fill="none" xmlns="http://www.w3.org/2000/svg">
<path fill-rule="evenodd" clip-rule="evenodd" d="M9.20666 13.52C9.13999 13.9733 8.72666 14.3333 8.23333 14.3333H5.76666C5.27333 14.3333 4.85999 13.9733 4.79999 13.4867L4.61999 12.2267C4.43999 12.1333 4.26666 12.0333 4.09333 11.92L2.89333 12.4C2.42666 12.5733 1.91333 12.38 1.68666 11.9667L0.46666 9.85334C0.233327 9.41334 0.333327 8.89334 0.70666 8.60001L1.72666 7.80667C1.71999 7.70667 1.71333 7.60667 1.71333 7.50001C1.71333 7.40001 1.71999 7.29334 1.72666 7.19334L0.713327 6.40001C0.319993 6.10001 0.219993 5.56001 0.46666 5.14667L1.69999 3.02001C1.92666 2.60667 2.43999 2.42001 2.89333 2.60001L4.09999 3.08667C4.27333 2.97334 4.44666 2.87334 4.61999 2.78001L4.79999 1.50667C4.85999 1.04001 5.27333 0.67334 5.75999 0.67334H8.22666C8.71999 0.67334 9.13333 1.03334 9.19333 1.52001L9.37333 2.78001C9.55333 2.87334 9.72666 2.97334 9.89999 3.08667L11.1 2.60667C11.5733 2.43334 12.0867 2.62667 12.3133 3.04001L13.54 5.16001C13.78 5.60001 13.6733 6.12001 13.3 6.41334L12.2867 7.20667C12.2933 7.30667 12.3 7.40667 12.3 7.51334C12.3 7.62001 12.2933 7.72001 12.2867 7.82001L13.3 8.61334C13.6733 8.91334 13.78 9.43334 13.5467 9.85334L12.3067 12C12.08 12.4133 11.5667 12.6 11.1067 12.42L9.90666 11.94C9.73333 12.0533 9.55999 12.1533 9.38666 12.2467L9.20666 13.52ZM6.07999 13H7.91999L8.16666 11.3L8.51999 11.1533C8.81333 11.0333 9.10666 10.86 9.41333 10.6333L9.71333 10.4067L11.3 11.0467L12.22 9.44667L10.8667 8.39334L10.9133 8.02001L10.9154 8.00206C10.9347 7.83514 10.9533 7.67378 10.9533 7.50001C10.9533 7.32001 10.9333 7.14667 10.9133 6.98001L10.8667 6.60667L12.22 5.55334L11.2933 3.95334L9.69999 4.59334L9.39999 4.36001C9.11999 4.14667 8.81999 3.97334 8.51333 3.84667L8.16666 3.70001L7.91999 2.00001H6.07999L5.83333 3.70001L5.47999 3.84001C5.18666 3.96667 4.89333 4.13334 4.58666 4.36667L4.28666 4.58667L2.69999 3.95334L1.77333 5.54667L3.12666 6.60001L3.07999 6.97334C3.05999 7.14667 3.03999 7.32667 3.03999 7.50001C3.03999 7.67334 3.05333 7.85334 3.07999 8.02001L3.12666 8.39334L1.77333 9.44667L2.69333 11.0467L4.28666 10.4067L4.58666 10.64C4.87333 10.86 5.15999 11.0267 5.47333 11.1533L5.82666 11.3L6.07999 13ZM9.33333 7.50001C9.33333 8.78867 8.28866 9.83334 6.99999 9.83334C5.71133 9.83334 4.66666 8.78867 4.66666 7.50001C4.66666 6.21134 5.71133 5.16667 6.99999 5.16667C8.28866 5.16667 9.33333 6.21134 9.33333 7.50001Z" fill="#79747E"/>
</svg>
