<svg width="31" height="28" viewBox="0 0 31 28" fill="none" xmlns="http://www.w3.org/2000/svg">
<path d="M15.5 4.0805C12.6695 4.0805 10.3262 4.63158 8.38216 5.45608L2.715 0.248413L0.53508 2.25158L5.6457 6.94783C1.61733 9.71316 0.183581 13.49 0.161997 13.5495L0.00012207 13.9972L0.161997 14.4448C0.195914 14.5412 3.7325 23.9167 15.5 23.9167C18.329 23.9167 20.6708 23.3656 22.6148 22.5411L28.2851 27.7516L30.465 25.7484L25.3513 21.0493C29.3812 18.284 30.8165 14.5072 30.8381 14.4477L31 14L30.8381 13.5523C30.8042 13.456 27.2676 4.0805 15.5 4.0805ZM15.5663 6.91666H15.5C17.5444 6.91666 19.5051 7.66294 20.9507 8.99132C22.3962 10.3197 23.2084 12.1214 23.2084 14C23.2006 15.3825 22.7432 16.7313 21.8949 17.8732L20.7833 16.8517C21.3539 15.9919 21.6593 15.0057 21.6667 13.9986C21.6667 13.3271 21.5141 12.6882 21.2736 12.0875C21.1324 12.2414 20.9566 12.3654 20.7584 12.4509C20.5601 12.5365 20.3441 12.5817 20.125 12.5833C19.7162 12.5833 19.324 12.4341 19.0349 12.1684C18.7458 11.9027 18.5834 11.5424 18.5834 11.1667C18.5834 10.5447 19.0274 10.0305 19.6348 9.84066C18.5117 8.87836 17.0356 8.33974 15.5 8.33191C14.3669 8.33191 13.3124 8.64075 12.3936 9.14225L11.2836 8.12225C12.4984 7.3785 13.9306 6.91666 15.5 6.91666H15.4337L15.5 6.91383L15.5663 6.91666ZM3.28079 13.9986C3.43958 13.6657 3.7032 13.1684 4.084 12.5975L13.129 20.9091C6.63391 19.9925 3.973 15.4662 3.28079 13.9986ZM17.5366 20.9516L6.00491 10.3549C6.56605 9.83806 7.1793 9.3713 7.83641 8.96091L20.2545 20.3722C19.3725 20.6503 18.4618 20.8444 17.5366 20.9516Z" fill="black"/>
</svg>
