<svg width="21" height="21" viewBox="0 0 21 21" fill="none" xmlns="http://www.w3.org/2000/svg">
<path d="M13.5 10.9969C13.8866 10.9969 14.2 10.6835 14.2 10.2969C14.2 9.91028 13.8866 9.59688 13.5 9.59687L13.5 10.9969ZM3.00503 9.8019C2.73166 10.0753 2.73166 10.5185 3.00503 10.7918L7.4598 15.2466C7.73316 15.52 8.17638 15.52 8.44975 15.2466C8.72311 14.9733 8.72311 14.53 8.44975 14.2567L4.48995 10.2969L8.44975 6.33708C8.72312 6.06371 8.72312 5.62049 8.44975 5.34713C8.17638 5.07376 7.73317 5.07376 7.4598 5.34713L3.00503 9.8019ZM13.5 9.59687L3.5 9.59687L3.5 10.9969L13.5 10.9969L13.5 9.59687Z" fill="#49454F"/>
<path d="M10.5 6.79688V5.79687C10.5 4.41616 11.6193 3.29688 13 3.29688H15C16.3807 3.29688 17.5 4.41616 17.5 5.79688V14.7969C17.5 16.1776 16.3807 17.2969 15 17.2969H13C11.6193 17.2969 10.5 16.1776 10.5 14.7969V14.2969" stroke="#49454F" stroke-width="1.5" stroke-linecap="round"/>
</svg>
