<svg width="20" height="20" viewBox="0 0 20 20" fill="none" xmlns="http://www.w3.org/2000/svg">
<path d="M19 10C19 5.03125 14.9688 1 10 1C5.03125 1 1 5.03125 1 10C1 14.9688 5.03125 19 10 19C14.9688 19 19 14.9688 19 10Z" stroke="#49454F" stroke-width="2" stroke-miterlimit="10"/>
<path d="M9.73099 5.7837L10.0001 11.5001L10.2686 5.7837C10.2703 5.74716 10.2645 5.71066 10.2516 5.67644C10.2386 5.64222 10.2189 5.61099 10.1935 5.58467C10.1681 5.55834 10.1376 5.53748 10.1038 5.52334C10.0701 5.5092 10.0338 5.5021 9.99724 5.50245C9.96109 5.50279 9.92539 5.51041 9.89225 5.52486C9.85912 5.53931 9.82923 5.56028 9.80438 5.58653C9.77953 5.61278 9.76022 5.64377 9.74761 5.67765C9.735 5.71152 9.72935 5.74759 9.73099 5.7837Z" stroke="#49454F" stroke-width="2" stroke-linecap="round" stroke-linejoin="round"/>
<path d="M10 15.2459C9.81458 15.2459 9.63332 15.1909 9.47915 15.0879C9.32498 14.9848 9.20482 14.8384 9.13386 14.6671C9.06291 14.4958 9.04434 14.3073 9.08051 14.1255C9.11669 13.9436 9.20598 13.7765 9.33709 13.6454C9.4682 13.5143 9.63525 13.425 9.8171 13.3889C9.99896 13.3527 10.1875 13.3713 10.3588 13.4422C10.5301 13.5132 10.6765 13.6333 10.7795 13.7875C10.8825 13.9417 10.9375 14.1229 10.9375 14.3084C10.9375 14.557 10.8387 14.7954 10.6629 14.9713C10.4871 15.1471 10.2486 15.2459 10 15.2459Z" fill="#49454F"/>
</svg>
